<svg width="657.9px" height="122px" xmlns="http://www.w3.org/2000/svg" viewBox="-78.94687499999998 14 657.89375 122" style="background: rgba(0, 0, 0, 0)" preserveAspectRatio="xMidYMid"><defs><linearGradient id="editing-sticker-gradient" x1="0.5" y1="0.2" x2="0.5" y2="0.8"><stop offset="0" stop-color="#ffdd99"></stop><stop offset="1" stop-color="#99ddff"></stop></linearGradient><filter id="editing-sticker" x="-100%" y="-100%" width="300%" height="300%"><feMorphology operator="erode" radius="1" in="SourceAlpha" result="alpha-erode"></feMorphology><feConvolveMatrix order="3,3" divisor="1" kernelMatrix="0 1 0 1 1 1 0 1 0" in="alpha-erode" result="alpha-round"></feConvolveMatrix><feMorphology operator="dilate" radius="3.5" in="alpha-round" result="dilate-shadow"></feMorphology><feGaussianBlur in="dilate-shadow" stdDeviation="1.5" result="shadow"></feGaussianBlur><feFlood flood-color="#fff" result="flood-sticker"></feFlood><feComposite operator="in" in="flood-sticker" in2="alpha-round" result="comp-sticker"></feComposite><feMorphology operator="dilate" radius="3" in="comp-sticker" result="morph-sticker"></feMorphology><feConvolveMatrix order="3,3" divisor="1" kernelMatrix="0 1 0 1 1 1 0 1 0" in="morph-sticker" result="sticker"></feConvolveMatrix><feMerge><feMergeNode in="shadow"></feMergeNode><feMergeNode in="sticker"></feMergeNode><feMergeNode in="SourceGraphic"></feMergeNode></feMerge></filter></defs><g filter="url(#editing-sticker)"><g transform="matrix(1.2,0,0,1.6,-24.5,187.4)"><path d="M 13.4 -56.9 L -0.5 -56.9 L 7.6 -99.2 L 21.7 -99.2 L 13.4 -56.9 Z M 69.2 -55.7 L 69.2 -55.7 L 69.2 -55.7 Q 61.4 -55.7 61.4 -61.7 L 61.4 -61.7 L 61.4 -61.7 Q 61.4 -64.3 62.5 -69.4 L 62.5 -69.4 L 62.5 -69.4 Q 63.7 -74.5 64 -76.5 L 64 -76.5 L 64 -76.5 Q 64.9 -81.2 64.9 -82.7 L 64.9 -82.7 L 64.9 -82.7 Q 64.9 -85.9 62.5 -85.9 L 62.5 -85.9 L 62.5 -85.9 Q 60.9 -85.9 59.4 -83.7 L 59.4 -83.7 L 59.4 -83.7 Q 57.8 -81.5 57.1 -77.1 L 57.1 -77.1 L 53.2 -56.9 L 40.7 -55.7 L 44.1 -73.1 L 44.1 -73.1 Q 44.7 -75.9 45.2 -79.2 L 45.2 -79.2 L 45.2 -79.2 Q 45.7 -82.5 45.7 -83 L 45.7 -83 L 45.7 -83 Q 45.7 -85.9 43.6 -85.9 L 43.6 -85.9 L 43.6 -85.9 Q 42.1 -85.9 40.5 -83.8 L 40.5 -83.8 L 40.5 -83.8 Q 38.9 -81.6 38 -77.1 L 38 -77.1 L 34.1 -56.9 L 21.5 -55.7 L 28.2 -89.6 L 38.6 -90.9 L 37.5 -84.4 L 37.5 -84.4 Q 39.2 -87.8 42.3 -89.4 L 42.3 -89.4 L 42.3 -89.4 Q 45.4 -90.9 50.2 -90.9 L 50.2 -90.9 L 50.2 -90.9 Q 52.9 -90.9 54.7 -89.5 L 54.7 -89.5 L 54.7 -89.5 Q 56.5 -88.2 57.1 -86 L 57.1 -86 L 57.1 -86 Q 58.2 -88.2 60.9 -89.5 L 60.9 -89.5 L 60.9 -89.5 Q 63.7 -90.9 67.1 -90.9 L 67.1 -90.9 L 67.1 -90.9 Q 70.6 -90.9 72.3 -90.1 L 72.3 -90.1 L 72.3 -90.1 Q 74 -89.4 75 -88.2 L 75 -88.2 L 75 -88.2 Q 76.7 -85.9 76.7 -81.8 L 76.7 -81.8 L 76.7 -81.8 Q 76.7 -77.8 75 -69.4 L 75 -69.4 L 75 -69.4 Q 74.1 -65.3 74.1 -63.8 L 74.1 -63.8 L 74.1 -63.8 Q 74.1 -62.3 75 -61.4 L 75 -61.4 L 75 -61.4 Q 75.8 -60.5 77.1 -60.4 L 77.1 -60.4 L 77.1 -60.4 Q 76.5 -58.2 74.3 -56.9 L 74.3 -56.9 L 74.3 -56.9 Q 72 -55.7 69.2 -55.7 Z M 84.8 -58.9 L 84.8 -58.9 L 84.8 -58.9 Q 83.3 -60.5 82.6 -63.1 L 82.6 -63.1 L 82.6 -63.1 Q 82 -65.8 82 -70.1 L 82 -70.1 L 82 -70.1 Q 82 -74.3 83.4 -78.2 L 83.4 -78.2 L 83.4 -78.2 Q 84.9 -82.2 87.6 -85 L 87.6 -85 L 87.6 -85 Q 93.1 -90.9 102.2 -90.9 L 102.2 -90.9 L 102.2 -90.9 Q 105.5 -90.9 107.8 -89.8 L 107.8 -89.8 L 118.8 -90.9 L 114 -65.9 L 114 -65.9 Q 113.8 -65.1 113.8 -63.7 L 113.8 -63.7 L 113.8 -63.7 Q 113.8 -62.3 114.7 -61.4 L 114.7 -61.4 L 114.7 -61.4 Q 115.6 -60.5 116.8 -60.4 L 116.8 -60.4 L 116.8 -60.4 Q 116.2 -58.2 113.9 -56.9 L 113.9 -56.9 L 113.9 -56.9 Q 111.5 -55.7 108.9 -55.7 L 108.9 -55.7 L 108.9 -55.7 Q 106.3 -55.7 104.5 -56.6 L 104.5 -56.6 L 104.5 -56.6 Q 102.8 -57.6 102.3 -59.3 L 102.3 -59.3 L 102.3 -59.3 Q 101.2 -57.7 99.1 -56.7 L 99.1 -56.7 L 99.1 -56.7 Q 96.9 -55.7 94 -55.7 L 94 -55.7 L 94 -55.7 Q 91.1 -55.7 88.7 -56.4 L 88.7 -56.4 L 88.7 -56.4 Q 86.3 -57.2 84.8 -58.9 Z M 98.3 -84.8 L 98.3 -84.8 L 98.3 -84.8 Q 97.6 -83.7 96.9 -81.7 L 96.9 -81.7 L 96.9 -81.7 Q 96.3 -79.8 95.2 -74.6 L 95.2 -74.6 L 95.2 -74.6 Q 94.2 -69.4 94.2 -65.6 L 94.2 -65.6 L 94.2 -65.6 Q 94.2 -61.9 94.8 -60.8 L 94.8 -60.8 L 94.8 -60.8 Q 95.3 -59.8 96.4 -59.8 L 96.4 -59.8 L 96.4 -59.8 Q 98.4 -59.8 99.9 -61.7 L 99.9 -61.7 L 99.9 -61.7 Q 101.4 -63.7 102 -67.1 L 102 -67.1 L 105.4 -85.9 L 105.4 -85.9 Q 104 -87 102.5 -87 L 102.5 -87 L 102.5 -87 Q 100.9 -87 100 -86.5 L 100 -86.5 L 100 -86.5 Q 99.1 -86 98.3 -84.8 Z M 126.5 -83.7 L 126.5 -83.7 L 126.5 -83.7 Q 128.7 -86.8 132 -88.8 L 132 -88.8 L 132 -88.8 Q 135.3 -90.9 139.3 -90.9 L 139.3 -90.9 L 139.3 -90.9 Q 143.3 -90.9 145.3 -89.6 L 145.3 -89.6 L 157.8 -90.9 L 153.5 -66.3 L 153.5 -66.3 Q 151.2 -53.7 146.5 -48.8 L 146.5 -48.8 L 146.5 -48.8 Q 141.9 -44.1 133.1 -44.1 L 133.1 -44.1 L 133.1 -44.1 Q 126.4 -44.1 122.5 -46.2 L 122.5 -46.2 L 122.5 -46.2 Q 118.7 -48.4 118.7 -51.9 L 118.7 -51.9 L 118.7 -51.9 Q 118.7 -54.5 120.7 -56 L 120.7 -56 L 120.7 -56 Q 122.7 -57.5 125.7 -57.5 L 125.7 -57.5 L 125.7 -57.5 Q 128.4 -57.5 130.5 -56.3 L 130.5 -56.3 L 130.5 -56.3 Q 131.7 -55.7 132.3 -54.8 L 132.3 -54.8 L 132.3 -54.8 Q 130.8 -53.5 130.8 -51.4 L 130.8 -51.4 L 130.8 -51.4 Q 130.8 -48.6 133.4 -48.6 L 133.4 -48.6 L 133.4 -48.6 Q 137.6 -48.6 140.1 -58.7 L 140.1 -58.7 L 140.1 -58.7 Q 140.8 -61.5 141.4 -64.2 L 141.4 -64.2 L 141.4 -64.2 Q 138.5 -60.7 131.9 -60.7 L 131.9 -60.7 L 131.9 -60.7 Q 127.4 -60.7 124.8 -62.9 L 124.8 -62.9 L 124.8 -62.9 Q 122.2 -65.1 122.2 -70.2 L 122.2 -70.2 L 122.2 -70.2 Q 122.2 -73.4 123.2 -77 L 123.2 -77 L 123.2 -77 Q 124.3 -80.6 126.5 -83.7 Z M 134.8 -70 L 134.8 -70 L 134.8 -70 Q 134.8 -65.6 137.1 -65.6 L 137.1 -65.6 L 137.1 -65.6 Q 138.6 -65.6 140.1 -67.3 L 140.1 -67.3 L 140.1 -67.3 Q 141.2 -68.6 141.7 -70.6 L 141.7 -70.6 L 144.9 -87.1 L 144.9 -87.1 Q 144.6 -87.1 144.3 -87.3 L 144.3 -87.3 L 144.3 -87.3 Q 143.7 -87.5 142.8 -87.5 L 142.8 -87.5 L 142.8 -87.5 Q 138.9 -87.5 136.6 -81.1 L 136.6 -81.1 L 136.6 -81.1 Q 134.8 -76.1 134.8 -70 Z M 186.2 -67.8 L 186.2 -67.8 L 186.2 -67.8 Q 187.8 -66.7 187.8 -64.3 L 187.8 -64.3 L 187.8 -64.3 Q 187.8 -61.9 186.6 -60.3 L 186.6 -60.3 L 186.6 -60.3 Q 185.4 -58.8 183.4 -57.8 L 183.4 -57.8 L 183.4 -57.8 Q 179.3 -55.7 174.9 -55.7 L 174.9 -55.7 L 174.9 -55.7 Q 170.5 -55.7 167.9 -56.6 L 167.9 -56.6 L 167.9 -56.6 Q 165.3 -57.6 163.6 -59.4 L 163.6 -59.4 L 163.6 -59.4 Q 160.2 -62.8 160.2 -69 L 160.2 -69 L 160.2 -69 Q 160.2 -78.6 165.4 -84.5 L 165.4 -84.5 L 165.4 -84.5 Q 171.1 -90.9 180.8 -90.9 L 180.8 -90.9 L 180.8 -90.9 Q 186.9 -90.9 189.9 -88.3 L 189.9 -88.3 L 189.9 -88.3 Q 192.2 -86.4 192.2 -83.2 L 192.2 -83.2 L 192.2 -83.2 Q 192.2 -72 172.7 -72 L 172.7 -72 L 172.7 -72 Q 172.5 -70.3 172.5 -68.9 L 172.5 -68.9 L 172.5 -68.9 Q 172.5 -66 173.8 -64.8 L 173.8 -64.8 L 173.8 -64.8 Q 175.1 -63.7 177.5 -63.7 L 177.5 -63.7 L 177.5 -63.7 Q 179.9 -63.7 182.5 -64.8 L 182.5 -64.8 L 182.5 -64.8 Q 185.1 -66 186.2 -67.8 Z M 173.2 -74.7 L 173.2 -74.7 L 173.2 -74.7 Q 177.7 -74.7 180.3 -77.5 L 180.3 -77.5 L 180.3 -77.5 Q 183 -80.2 183 -84.5 L 183 -84.5 L 183 -84.5 Q 183 -86 182.4 -86.8 L 182.4 -86.8 L 182.4 -86.8 Q 181.9 -87.6 180.8 -87.6 L 180.8 -87.6 L 180.8 -87.6 Q 179.7 -87.6 178.8 -87.2 L 178.8 -87.2 L 178.8 -87.2 Q 177.8 -86.8 176.9 -85.4 L 176.9 -85.4 L 176.9 -85.4 Q 174.5 -82.2 173.2 -74.7 Z M 213.5 -79.4 L 213.5 -79.4 L 213.5 -79.4 Q 214.4 -81.8 214.4 -83.8 L 214.4 -83.8 L 214.4 -83.8 Q 214.4 -87.6 211.3 -87.6 L 211.3 -87.6 L 211.3 -87.6 Q 209.7 -87.6 208.4 -86.2 L 208.4 -86.2 L 208.4 -86.2 Q 207.1 -84.7 207.1 -82.9 L 207.1 -82.9 L 207.1 -82.9 Q 207.1 -81.6 208.1 -80.6 L 208.1 -80.6 L 208.1 -80.6 Q 209.6 -79.2 213.4 -76.9 L 213.4 -76.9 L 213.4 -76.9 Q 217.1 -74.6 218.6 -72.7 L 218.6 -72.7 L 218.6 -72.7 Q 220 -70.8 220 -68.2 L 220 -68.2 L 220 -68.2 Q 220 -65.6 218.8 -63.3 L 218.8 -63.3 L 218.8 -63.3 Q 217.5 -60.9 215.3 -59.2 L 215.3 -59.2 L 215.3 -59.2 Q 210.5 -55.7 202.8 -55.7 L 202.8 -55.7 L 202.8 -55.7 Q 198.6 -55.7 195.4 -57.8 L 195.4 -57.8 L 195.4 -57.8 Q 192.2 -59.9 192.2 -62.4 L 192.2 -62.4 L 192.2 -62.4 Q 192.2 -64.9 194.1 -66.4 L 194.1 -66.4 L 194.1 -66.4 Q 195.9 -67.9 198.6 -67.9 L 198.6 -67.9 L 198.6 -67.9 Q 201.3 -67.9 202.9 -66.9 L 202.9 -66.9 L 202.9 -66.9 Q 202.1 -64.7 202.1 -63.3 L 202.1 -63.3 L 202.1 -63.3 Q 202.1 -59.1 205.7 -59.1 L 205.7 -59.1 L 205.7 -59.1 Q 207.2 -59.1 208.2 -60.1 L 208.2 -60.1 L 208.2 -60.1 Q 209.3 -61 209.3 -62.7 L 209.3 -62.7 L 209.3 -62.7 Q 209.3 -66 203.8 -69.4 L 203.8 -69.4 L 203.8 -69.4 Q 199.3 -72.4 198.3 -73.5 L 198.3 -73.5 L 198.3 -73.5 Q 196.5 -75.6 196.5 -78.1 L 196.5 -78.1 L 196.5 -78.1 Q 196.5 -80.7 197.7 -83.1 L 197.7 -83.1 L 197.7 -83.1 Q 199 -85.5 201.2 -87.3 L 201.2 -87.3 L 201.2 -87.3 Q 205.9 -90.9 214 -90.9 L 214 -90.9 L 214 -90.9 Q 218.2 -90.9 220.6 -89.2 L 220.6 -89.2 L 220.6 -89.2 Q 223.1 -87.5 223.1 -84.7 L 223.1 -84.7 L 223.1 -84.7 Q 223.1 -81.9 221.4 -80.3 L 221.4 -80.3 L 221.4 -80.3 Q 219.7 -78.7 216.6 -78.7 L 216.6 -78.7 L 216.6 -78.7 Q 214.5 -78.7 213.5 -79.4 Z M 264.6 -77.5 L 277.5 -78.7 L 277.5 -78.7 Q 272.9 -68.6 272.9 -56.9 L 272.9 -56.9 L 272.9 -56.9 Q 271.1 -55.7 268.6 -55.7 L 268.6 -55.7 L 268.6 -55.7 Q 266.1 -55.7 264.5 -56.8 L 264.5 -56.8 L 264.5 -56.8 Q 262.9 -58 262.6 -59.2 L 262.6 -59.2 L 262.6 -59.2 Q 261 -57.6 258.4 -56.6 L 258.4 -56.6 L 258.4 -56.6 Q 255.8 -55.7 253 -55.7 L 253 -55.7 L 253 -55.7 Q 250.3 -55.7 247.9 -56.6 L 247.9 -56.6 L 247.9 -56.6 Q 245.5 -57.4 243.6 -59.4 L 243.6 -59.4 L 243.6 -59.4 Q 239.5 -63.8 239.5 -72 L 239.5 -72 L 239.5 -72 Q 239.5 -84.8 246.4 -92.5 L 246.4 -92.5 L 246.4 -92.5 Q 253.4 -100.5 265.9 -100.5 L 265.9 -100.5 L 265.9 -100.5 Q 274.5 -100.5 277.6 -96 L 277.6 -96 L 277.6 -96 Q 278.6 -94.6 278.6 -92.9 L 278.6 -92.9 L 278.6 -92.9 Q 278.6 -91.2 277.8 -89.7 L 277.8 -89.7 L 277.8 -89.7 Q 277.1 -88.3 275.9 -87.1 L 275.9 -87.1 L 275.9 -87.1 Q 273.2 -84.6 269.8 -84.6 L 269.8 -84.6 L 269.8 -84.6 Q 268.5 -84.6 267.2 -85 L 267.2 -85 L 267.2 -85 Q 267.4 -87 267.4 -89.2 L 267.4 -89.2 L 267.4 -89.2 Q 267.4 -91.4 267.3 -92.5 L 267.3 -92.5 L 267.3 -92.5 Q 267.1 -93.5 266.7 -94.3 L 266.7 -94.3 L 266.7 -94.3 Q 265.9 -96 264.1 -96 L 264.1 -96 L 264.1 -96 Q 262.3 -96 260.2 -94.1 L 260.2 -94.1 L 260.2 -94.1 Q 258.2 -92.1 256.6 -88.9 L 256.6 -88.9 L 256.6 -88.9 Q 253.1 -81.8 253.1 -73.1 L 253.1 -73.1 L 253.1 -73.1 Q 253.1 -69.2 254.6 -66.3 L 254.6 -66.3 L 254.6 -66.3 Q 256.3 -63.3 259.2 -63.3 L 259.2 -63.3 L 259.2 -63.3 Q 260.3 -63.3 261.2 -63.8 L 261.2 -63.8 L 261.2 -63.8 Q 262.1 -64.3 262.5 -64.7 L 262.5 -64.7 L 264.6 -77.5 Z M 283.4 -58.9 L 283.4 -58.9 L 283.4 -58.9 Q 281.9 -60.5 281.2 -63.1 L 281.2 -63.1 L 281.2 -63.1 Q 280.6 -65.8 280.6 -70.1 L 280.6 -70.1 L 280.6 -70.1 Q 280.6 -74.3 282 -78.2 L 282 -78.2 L 282 -78.2 Q 283.5 -82.2 286.2 -85 L 286.2 -85 L 286.2 -85 Q 291.7 -90.9 300.8 -90.9 L 300.8 -90.9 L 300.8 -90.9 Q 304 -90.9 306.4 -89.8 L 306.4 -89.8 L 317.4 -90.9 L 312.6 -65.9 L 312.6 -65.9 Q 312.4 -65.1 312.4 -63.7 L 312.4 -63.7 L 312.4 -63.7 Q 312.4 -62.3 313.3 -61.4 L 313.3 -61.4 L 313.3 -61.4 Q 314.2 -60.5 315.4 -60.4 L 315.4 -60.4 L 315.4 -60.4 Q 314.8 -58.2 312.5 -56.9 L 312.5 -56.9 L 312.5 -56.9 Q 310.1 -55.7 307.5 -55.7 L 307.5 -55.7 L 307.5 -55.7 Q 304.9 -55.7 303.1 -56.6 L 303.1 -56.6 L 303.1 -56.6 Q 301.4 -57.6 300.8 -59.3 L 300.8 -59.3 L 300.8 -59.3 Q 299.8 -57.7 297.6 -56.7 L 297.6 -56.7 L 297.6 -56.7 Q 295.5 -55.7 292.6 -55.7 L 292.6 -55.7 L 292.6 -55.7 Q 289.6 -55.7 287.3 -56.4 L 287.3 -56.4 L 287.3 -56.4 Q 284.9 -57.2 283.4 -58.9 Z M 296.9 -84.8 L 296.9 -84.8 L 296.9 -84.8 Q 296.2 -83.7 295.5 -81.7 L 295.5 -81.7 L 295.5 -81.7 Q 294.9 -79.8 293.8 -74.6 L 293.8 -74.6 L 293.8 -74.6 Q 292.8 -69.4 292.8 -65.6 L 292.8 -65.6 L 292.8 -65.6 Q 292.8 -61.9 293.4 -60.8 L 293.4 -60.8 L 293.4 -60.8 Q 293.9 -59.8 295 -59.8 L 295 -59.8 L 295 -59.8 Q 297 -59.8 298.5 -61.7 L 298.5 -61.7 L 298.5 -61.7 Q 300 -63.7 300.6 -67.1 L 300.6 -67.1 L 304 -85.9 L 304 -85.9 Q 302.6 -87 301.1 -87 L 301.1 -87 L 301.1 -87 Q 299.5 -87 298.6 -86.5 L 298.6 -86.5 L 298.6 -86.5 Q 297.6 -86 296.9 -84.8 Z M 336.1 -60.5 L 336.1 -60.5 L 336.1 -60.5 Q 334.1 -55.7 327.8 -55.7 L 327.8 -55.7 L 327.8 -55.7 Q 324.6 -55.7 322.5 -57.9 L 322.5 -57.9 L 322.5 -57.9 Q 320.9 -59.8 320.9 -61.9 L 320.9 -61.9 L 320.9 -61.9 Q 320.9 -66.7 323.1 -77.2 L 323.1 -77.2 L 327.8 -101.7 L 340.8 -103 L 334.6 -70.6 L 334.6 -70.6 Q 333.5 -65.9 333.5 -64.2 L 333.5 -64.2 L 333.5 -64.2 Q 333.5 -60.6 336.1 -60.5 Z M 356.8 -60.5 L 356.8 -60.5 L 356.8 -60.5 Q 354.9 -55.7 348.5 -55.7 L 348.5 -55.7 L 348.5 -55.7 Q 345.3 -55.7 343.3 -57.9 L 343.3 -57.9 L 343.3 -57.9 Q 341.6 -59.8 341.6 -61.9 L 341.6 -61.9 L 341.6 -61.9 Q 341.6 -66.7 343.9 -77.2 L 343.9 -77.2 L 348.5 -101.7 L 361.5 -103 L 355.3 -70.6 L 355.3 -70.6 Q 354.2 -65.9 354.2 -64.2 L 354.2 -64.2 L 354.2 -64.2 Q 354.2 -60.6 356.8 -60.5 Z M 388.2 -67.8 L 388.2 -67.8 L 388.2 -67.8 Q 389.8 -66.7 389.8 -64.3 L 389.8 -64.3 L 389.8 -64.3 Q 389.8 -61.9 388.6 -60.3 L 388.6 -60.3 L 388.6 -60.3 Q 387.4 -58.8 385.4 -57.8 L 385.4 -57.8 L 385.4 -57.8 Q 381.3 -55.7 376.9 -55.7 L 376.9 -55.7 L 376.9 -55.7 Q 372.5 -55.7 369.9 -56.6 L 369.9 -56.6 L 369.9 -56.6 Q 367.3 -57.6 365.5 -59.4 L 365.5 -59.4 L 365.5 -59.4 Q 362.2 -62.8 362.2 -69 L 362.2 -69 L 362.2 -69 Q 362.2 -78.6 367.4 -84.5 L 367.4 -84.5 L 367.4 -84.5 Q 373 -90.9 382.8 -90.9 L 382.8 -90.9 L 382.8 -90.9 Q 388.9 -90.9 391.9 -88.3 L 391.9 -88.3 L 391.9 -88.3 Q 394.2 -86.4 394.2 -83.2 L 394.2 -83.2 L 394.2 -83.2 Q 394.2 -72 374.7 -72 L 374.7 -72 L 374.7 -72 Q 374.4 -70.3 374.4 -68.9 L 374.4 -68.9 L 374.4 -68.9 Q 374.4 -66 375.8 -64.8 L 375.8 -64.8 L 375.8 -64.8 Q 377.1 -63.7 379.5 -63.7 L 379.5 -63.7 L 379.5 -63.7 Q 381.9 -63.7 384.5 -64.8 L 384.5 -64.8 L 384.5 -64.8 Q 387.1 -66 388.2 -67.8 Z M 375.1 -74.7 L 375.1 -74.7 L 375.1 -74.7 Q 379.7 -74.7 382.3 -77.5 L 382.3 -77.5 L 382.3 -77.5 Q 384.9 -80.2 384.9 -84.5 L 384.9 -84.5 L 384.9 -84.5 Q 384.9 -86 384.4 -86.8 L 384.4 -86.8 L 384.4 -86.8 Q 383.9 -87.6 382.8 -87.6 L 382.8 -87.6 L 382.8 -87.6 Q 381.7 -87.6 380.7 -87.2 L 380.7 -87.2 L 380.7 -87.2 Q 379.8 -86.8 378.9 -85.4 L 378.9 -85.4 L 378.9 -85.4 Q 376.5 -82.2 375.1 -74.7 Z M 416.4 -74.9 L 416.4 -74.9 L 416.4 -74.9 Q 418.7 -79 418.7 -83.2 L 418.7 -83.2 L 418.7 -83.2 Q 418.7 -85.9 416.7 -85.9 L 416.7 -85.9 L 416.7 -85.9 Q 415.1 -85.9 413.5 -83.3 L 413.5 -83.3 L 413.5 -83.3 Q 411.9 -80.7 411.4 -77.3 L 411.4 -77.3 L 408 -56.9 L 394.8 -55.7 L 401.3 -89.6 L 411.9 -90.9 L 410.7 -84.4 L 410.7 -84.4 Q 413.9 -90.9 420.9 -90.9 L 420.9 -90.9 L 420.9 -90.9 Q 424.6 -90.9 426.6 -88.9 L 426.6 -88.9 L 426.6 -88.9 Q 428.7 -87 428.7 -83.1 L 428.7 -83.1 L 428.7 -83.1 Q 428.7 -79.1 426.1 -76.6 L 426.1 -76.6 L 426.1 -76.6 Q 423.5 -74.2 419.1 -74.2 L 419.1 -74.2 L 419.1 -74.2 Q 417.1 -74.2 416.4 -74.9 Z M 450 -64.2 L 450 -64.2 L 450 -64.2 Q 446.7 -60.7 440.6 -60.7 L 440.6 -60.7 L 440.6 -60.7 Q 433 -60.7 431.4 -66.3 L 431.4 -66.3 L 431.4 -66.3 Q 430.9 -67.9 430.9 -69.8 L 430.9 -69.8 L 430.9 -69.8 Q 430.9 -71.7 431.3 -73.6 L 431.3 -73.6 L 434.3 -89.6 L 447.3 -90.9 L 443.8 -72.2 L 443.8 -72.2 Q 443.6 -71.4 443.4 -70.5 L 443.4 -70.5 L 443.4 -70.5 Q 443.2 -69.6 443.2 -68.7 L 443.2 -68.7 L 443.2 -68.7 Q 443.2 -67.8 443.6 -67.1 L 443.6 -67.1 L 443.6 -67.1 Q 443.9 -66.5 444.3 -66.2 L 444.3 -66.2 L 444.3 -66.2 Q 445.1 -65.6 446.5 -65.6 L 446.5 -65.6 L 446.5 -65.6 Q 447.9 -65.6 449 -67.3 L 449 -67.3 L 449 -67.3 Q 450.2 -69 450.8 -71.8 L 450.8 -71.8 L 454.3 -89.6 L 466.9 -90.9 L 462.1 -65.7 L 462.1 -65.7 Q 459.8 -53.4 454.9 -48.6 L 454.9 -48.6 L 454.9 -48.6 Q 452.4 -46.1 449.2 -45.1 L 449.2 -45.1 L 449.2 -45.1 Q 445.9 -44.1 441.8 -44.1 L 441.8 -44.1 L 441.8 -44.1 Q 435.1 -44.1 431.2 -46.2 L 431.2 -46.2 L 431.2 -46.2 Q 427.4 -48.3 427.4 -51.8 L 427.4 -51.8 L 427.4 -51.8 Q 427.4 -54.4 429.4 -55.9 L 429.4 -55.9 L 429.4 -55.9 Q 431.3 -57.4 434.4 -57.4 L 434.4 -57.4 L 434.4 -57.4 Q 437.1 -57.4 439.1 -56.3 L 439.1 -56.3 L 439.1 -56.3 Q 440.4 -55.6 440.9 -54.7 L 440.9 -54.7 L 440.9 -54.7 Q 439.5 -53.4 439.5 -51.3 L 439.5 -51.3 L 439.5 -51.3 Q 439.5 -48.5 442 -48.5 L 442 -48.5 L 442 -48.5 Q 446.3 -48.5 448.7 -58.2 L 448.7 -58.2 L 448.7 -58.2 Q 449.4 -61.1 450 -64.2 Z" fill="url(#editing-sticker-gradient)" stroke="#000000" stroke-width="2.5"></path></g></g><style>text {
  font-size: 64px;
  font-family: Arial Black;
  dominant-baseline: central;
  text-anchor: middle;
}</style></svg>